<svg width="37" height="30" viewBox="0 0 37 30" fill="none" xmlns="http://www.w3.org/2000/svg">
<path d="M17.9801 8.12404C18.3756 7.77147 18.5316 7.21744 18.3255 6.72497C18.1974 6.42837 18.0581 6.13736 17.9022 5.85755L17.7295 5.55535C17.5624 5.27554 17.3785 5.00132 17.1836 4.7383C16.8661 4.31298 16.3091 4.17308 15.8077 4.34097L14.2369 4.86142C13.6409 4.36895 12.9557 3.96602 12.2205 3.6918L11.8807 2.06889C11.7748 1.54843 11.3738 1.13431 10.8502 1.07275C10.4825 1.02239 10.1093 1 9.73055 1H9.69156C9.31278 1 8.93957 1.02239 8.57193 1.06716C8.04832 1.12871 7.64726 1.54843 7.54143 2.06329L7.20164 3.6918C6.46079 3.97161 5.78122 4.36895 5.1852 4.86142L3.60881 4.34656C3.10748 4.17867 2.55045 4.31858 2.23295 4.7439C2.03799 5.00692 1.85417 5.28114 1.68149 5.56095L1.51438 5.85755C1.35841 6.13736 1.21916 6.42837 1.09104 6.73057C0.88494 7.21744 1.04091 7.77147 1.4364 8.12963L2.673 9.23769C2.61173 9.61264 2.57831 10.0044 2.57831 10.4017C2.57831 10.799 2.61173 11.1908 2.673 11.5713L1.4364 12.6794C1.04091 13.032 0.88494 13.586 1.09104 14.0785C1.21916 14.3751 1.35841 14.6661 1.51438 14.9515L1.68149 15.2425C1.8486 15.5279 2.03242 15.7965 2.23295 16.0595C2.55045 16.4848 3.10748 16.6248 3.60881 16.4569L5.17963 15.9364C5.77565 16.4289 6.46079 16.8318 7.19607 17.106L7.53586 18.7345C7.64169 19.255 8.04275 19.6691 8.56636 19.7307C8.93957 19.7754 9.31835 19.7978 9.7027 19.7978C10.2792 19.7978 10.4658 19.7754 10.839 19.7307C11.3626 19.6691 11.7637 19.2494 11.8695 18.7345L12.2093 17.106C12.9502 16.8262 13.6297 16.4289 14.2258 15.9364L15.7966 16.4569C16.2979 16.6248 16.8549 16.4848 17.1724 16.0595C17.3674 15.7965 17.5512 15.5279 17.7183 15.2425L17.891 14.9403C18.047 14.6605 18.1862 14.3695 18.3144 14.0729C18.5205 13.586 18.3645 13.032 17.969 12.6738L16.7324 11.5657C16.7937 11.1852 16.8271 10.7934 16.8271 10.3961C16.8271 9.99878 16.7937 9.60704 16.7324 9.2265L17.969 8.11844L17.9801 8.12404ZM7.03453 10.4017C7.03453 9.68929 7.31623 9.00604 7.81765 8.50228C8.31907 7.99852 8.99915 7.71551 9.70827 7.71551C10.4174 7.71551 11.0975 7.99852 11.5989 8.50228C12.1003 9.00604 12.382 9.68929 12.382 10.4017C12.382 11.1141 12.1003 11.7974 11.5989 12.3011C11.0975 12.8049 10.4174 13.0879 9.70827 13.0879C8.99915 13.0879 8.31907 12.8049 7.81765 12.3011C7.31623 11.7974 7.03453 11.1141 7.03453 10.4017ZM28.909 28.5616C29.26 28.9589 29.8114 29.1156 30.3016 28.9085C30.5968 28.7798 30.8865 28.6399 31.165 28.4832L31.4658 28.3097C31.7443 28.1418 32.0172 27.9572 32.2791 27.7613C32.7024 27.4423 32.8416 26.8827 32.6745 26.379L32.1565 24.8009C32.6467 24.2021 33.0478 23.5137 33.3207 22.775L34.9416 22.4337C35.4597 22.3273 35.8719 21.9244 35.9332 21.3984C35.9777 21.0234 36 20.6429 36 20.2567C36 19.6775 35.9777 19.49 35.9332 19.1151C35.8719 18.589 35.4541 18.1861 34.9416 18.0798L33.3207 17.7328C33.0422 16.9885 32.6467 16.3058 32.1565 15.707L32.6745 14.1288C32.8416 13.6252 32.7024 13.0655 32.2791 12.7465C32.0172 12.5507 31.7443 12.366 31.4658 12.1925L31.1706 12.0246C30.892 11.8679 30.6024 11.728 30.3016 11.5993C29.817 11.3922 29.2655 11.5489 28.909 11.9463L27.8061 13.1886C27.4273 13.1271 27.0374 13.0935 26.6419 13.0935C26.2464 13.0935 25.8565 13.1271 25.4777 13.1886L24.3748 11.9463C24.0239 11.5489 23.4724 11.3922 22.9822 11.5993C22.687 11.728 22.3974 11.8679 22.1133 12.0246L21.8236 12.1925C21.5395 12.3604 21.2722 12.5451 21.0104 12.7465C20.587 13.0655 20.4478 13.6252 20.6149 14.1288L21.1329 15.707C20.6427 16.3058 20.2417 16.9941 19.9687 17.7328L18.3478 18.0686C17.8297 18.1749 17.4175 18.5778 17.3563 19.1039C17.3117 19.4788 17.2894 19.8594 17.2894 20.2455C17.2894 20.8247 17.3117 21.0122 17.3563 21.3872C17.4175 21.9132 17.8353 22.3161 18.3478 22.4225L19.9687 22.7638C20.2472 23.5081 20.6427 24.1909 21.1329 24.7897L20.6149 26.3678C20.4478 26.8715 20.587 27.4311 21.0104 27.7501C21.2722 27.946 21.5395 28.1307 21.8236 28.2985L22.1244 28.472C22.4029 28.6287 22.6926 28.7686 22.9878 28.8973C23.4724 29.1044 24.0239 28.9477 24.3804 28.5504L25.4833 27.308C25.8621 27.3696 26.252 27.4031 26.6475 27.4031C27.043 27.4031 27.4329 27.3696 27.8117 27.308L28.9146 28.5504L28.909 28.5616ZM26.6419 17.5649C26.993 17.5649 27.3407 17.6344 27.6651 17.7694C27.9895 17.9044 28.2843 18.1023 28.5325 18.3517C28.7808 18.6011 28.9778 18.8973 29.1121 19.2232C29.2465 19.5491 29.3157 19.8984 29.3157 20.2511C29.3157 20.6039 29.2465 20.9532 29.1121 21.2791C28.9778 21.605 28.7808 21.9011 28.5325 22.1506C28.2843 22.4 27.9895 22.5979 27.6651 22.7329C27.3407 22.8678 26.993 22.9373 26.6419 22.9373C26.2908 22.9373 25.9431 22.8678 25.6187 22.7329C25.2943 22.5979 24.9996 22.4 24.7513 22.1506C24.503 21.9011 24.3061 21.605 24.1717 21.2791C24.0373 20.9532 23.9682 20.6039 23.9682 20.2511C23.9682 19.8984 24.0373 19.5491 24.1717 19.2232C24.3061 18.8973 24.503 18.6011 24.7513 18.3517C24.9996 18.1023 25.2943 17.9044 25.6187 17.7694C25.9431 17.6344 26.2908 17.5649 26.6419 17.5649Z" fill="white"/>
</svg>
