<svg width="30" height="30" viewBox="0 0 30 30" fill="none" xmlns="http://www.w3.org/2000/svg">
<path d="M15 10H5C4.33696 10 3.70107 10.2634 3.23223 10.7322C2.76339 11.2011 2.5 11.837 2.5 12.5V17.5C2.5 18.163 2.76339 18.7989 3.23223 19.2678C3.70107 19.7366 4.33696 20 5 20H6.25V25C6.25 25.3315 6.3817 25.6495 6.61612 25.8839C6.85054 26.1183 7.16848 26.25 7.5 26.25H10C10.3315 26.25 10.6495 26.1183 10.8839 25.8839C11.1183 25.6495 11.25 25.3315 11.25 25V20H15L21.25 25V5L15 10ZM26.875 15C26.875 17.1375 25.675 19.075 23.75 20V10C25.6625 10.9375 26.875 12.875 26.875 15Z" fill="white"/>
</svg>
