<svg width="30" height="30" viewBox="0 0 30 30" fill="none" xmlns="http://www.w3.org/2000/svg">
<path d="M18.2724 3.327C18.5097 3.39339 18.7315 3.50588 18.9253 3.65805C19.1191 3.81021 19.2809 3.99908 19.4017 4.21384C19.5224 4.4286 19.5996 4.66506 19.6289 4.90968C19.6582 5.1543 19.639 5.4023 19.5724 5.6395L14.0337 25.3733C13.8994 25.8521 13.5804 26.2581 13.1468 26.5017C12.7133 26.7454 12.2007 26.8069 11.7218 26.6726C11.2429 26.5384 10.837 26.2194 10.5933 25.7858C10.3496 25.3522 10.2881 24.8396 10.4224 24.3608L15.9612 4.6245C16.0277 4.38736 16.1403 4.16564 16.2925 3.97201C16.4447 3.77839 16.6336 3.61665 16.8483 3.49604C17.0631 3.37543 17.2995 3.29832 17.5441 3.2691C17.7886 3.23988 18.0365 3.25913 18.2737 3.32575L18.2724 3.327ZM9.44741 8.37075C9.79854 8.72232 9.99576 9.19888 9.99576 9.69575C9.99576 10.1926 9.79854 10.6692 9.44741 11.0208L5.47241 14.9995L9.44991 18.977C9.80149 19.3287 9.99894 19.8057 9.99882 20.3031C9.9987 20.8004 9.80103 21.2773 9.44929 21.6289C9.09754 21.9805 8.62054 22.1779 8.12322 22.1778C7.6259 22.1777 7.14899 21.98 6.79741 21.6283L1.49366 16.3245C1.14254 15.9729 0.945312 15.4964 0.945312 14.9995C0.945312 14.5026 1.14254 14.0261 1.49366 13.6745L6.79616 8.37075C6.97029 8.19652 7.17704 8.0583 7.4046 7.96399C7.63217 7.86969 7.87608 7.82115 8.12241 7.82115C8.36874 7.82115 8.61266 7.86969 8.84022 7.96399C9.06779 8.0583 9.27329 8.19652 9.44741 8.37075ZM20.5474 11.0208C20.3632 10.8491 20.2154 10.6421 20.113 10.4121C20.0105 10.1821 19.9554 9.93382 19.9509 9.68206C19.9465 9.4303 19.9928 9.18023 20.0871 8.94676C20.1814 8.71329 20.3218 8.5012 20.4998 8.32316C20.6779 8.14511 20.8899 8.00475 21.1234 7.91045C21.3569 7.81614 21.607 7.76983 21.8587 7.77427C22.1105 7.77872 22.3588 7.83382 22.5888 7.9363C22.8188 8.03878 23.0258 8.18654 23.1974 8.37075L28.5012 13.6733C28.8527 14.0249 29.0501 14.5017 29.0501 14.9989C29.0501 15.4961 28.8527 15.9729 28.5012 16.3245L23.1987 21.6283C23.0246 21.8024 22.8179 21.9406 22.5904 22.0349C22.3629 22.1292 22.1191 22.1777 21.8729 22.1778C21.6266 22.1778 21.3828 22.1294 21.1552 22.0352C20.9277 21.941 20.721 21.803 20.5468 21.6289C20.3726 21.4548 20.2344 21.2481 20.1402 21.0206C20.0459 20.7931 19.9973 20.5493 19.9973 20.3031C19.9972 20.0568 20.0456 19.813 20.1398 19.5854C20.234 19.3579 20.3721 19.1512 20.5462 18.977L24.5237 14.9995L20.5474 11.0208Z" fill="white"/>
</svg>
